<svg xmlns="http://www.w3.org/2000/svg" width="256" height="256" viewBox="0 0 256 256">
<!-- SVG created with Arrow, by QuiverAI (https://quiver.ai) -->
  <path d="m96.88 10c-14.39 0-26.06 12.29-26.06 26.21 0 14.3 11.67 24.39 24.8 24.39h2.1c10.19 0 18.06 5.45 24.9 11.7v-35.71c0-14.43-11.67-26.59-25.74-26.59z" fill="#2D8CCB"/>
  <path d="m33.93 70.93c-14.39 0-25.54 12.29-25.54 26.21 0 13.77 11.15 26.05 25.54 26.05h63.26c14.39 0 25.43-12.28 25.43-26.05 0-13.92-11.04-26.21-25.74-26.21h-62.95z" fill="#2C8BCA"/>
  <path d="m158.8 10c-14.39 0-26.06 12.81-26.06 26.6v60.01c0 14.3 11.67 25.95 25.75 25.95 14.38 0 26.36-11.65 26.36-25.54v-60.42c0-13.79-11.66-26.6-26.05-26.6z" fill="#29A85F"/>
  <path d="m221.8 70.93c-14.39 0-26.36 12.17-26.36 27.14 0 9.59-5.43 18.92-10.33 25.13h36.06c14.39 0 26.36-11.66 26.36-25.55 0.12-13.92-11.34-26.72-25.73-26.72z" fill="#27A85D"/>
  <path d="m221.8 133.4h-63.26c-14.39 0-25.75 12.29-25.75 26.59 0 13.76 11.36 25.16 25.75 25.16h63.26c14.07 0 25.74-11.65 25.74-25.54-0.12-13.92-11.78-26.21-25.74-26.21z" fill="#F2B70F"/>
  <path d="m96.67 133.4c-14.07 0-26.15 11.65-26.15 26.59v60.42c0 13.29 11.35 25.7 25.74 25.63 14.39 0 26.36-11.9 26.36-26.21v-59.84c0-14.94-11.67-26.59-25.95-26.59z" fill="#D92B37"/>
  <path d="m33.52 133.4c-14.08 0-25.13 12.81-25.13 26.6 0 13.29 11.05 25.15 25.13 25.15 14.6 0 26.47-12.17 26.47-26.06 0-9.59 5.12-18.92 10.02-25.13l-36.49-0.56z" fill="#D92B37"/>
  <path d="m132.8 185.1v34.19c0 14.3 11.67 26.7 26.06 26.7s26.36-11.65 26.05-25.54c-0.31-13.29-12.08-24.56-25.64-24.56h-1.36c-9.88 0-18.57-4.54-25.11-10.79z" fill="#F2B70F"/>
</svg>
