<svg xmlns="http://www.w3.org/2000/svg" width="250" height="250" viewBox="0 0 250 250">
<!-- SVG created with Arrow, by QuiverAI (https://quiver.ai) -->
  <path d="m114.3 27.66c2.9-12.78 12.97-20.66 25.33-20.66h0.3c14.17 0 26.26 12.67 26.07 26.91v41.9c0 6.57-2.26 11.96-7.96 17.9-5.25 5.48-11.25 7.37-18.41 7.37-14.17 0-25.33-11.59-25.33-24.89v-7.11l-0.06-37.76 0.06-3.66z" fill="#3BB16F" stroke="#35A067" stroke-miterlimit="10" stroke-width=".7"/>
  <path d="m114.3 30.71c-1.97 6.03-5.68 7.22-9.08 7.57-5.29 0.54-8.35-2.45-12.04-6.96-5.19-5.8-10.45-9.01-19.38-8.86-13.78 0-25.54 11.33-25.54 25.6 0 13.93 11.14 25.26 25 25.26 8.94 0 14.87-4.04 20.49-10.27 3.67-3.74 6.2-4.53 10.03-4.33 5.15 0.27 9.51 5.14 10.52 10.36v-38.37z" fill="#319FE2" stroke="#318DCB" stroke-miterlimit="10" stroke-width=".7"/>
  <path d="m219.6 113.6h-47.54c-13.98 0-24.76 11.5-24.76 24.66v0.53c0 13.17 10.4 24.9 24.76 24.9h44.82c13.92 0 26.11-11.86 26.11-25.3 0-13.04-10.22-24.07-23.39-24.79z" fill="#37AE6D" stroke="#35A067" stroke-miterlimit="10" stroke-width=".7"/>
  <path d="m213.8 102.8c0-4.79 2.25-7.96 6.38-11.44 5.92-4.74 8.24-10.75 8.24-17.79 0-13.96-10.96-26-25.82-26-14.2 0-25.16 11.7-25.16 25.69 0 8.7 4.64 15.6 10.09 20.37 2.37 2.12 3.65 4.73 3.65 8.5 0 5.89-5.4 11.03-11.48 11.43h41.8c-4.8-1.59-7.7-5.8-7.7-10.76z" fill="#E63954" stroke="#D4314E" stroke-miterlimit="10" stroke-width=".7"/>
  <path d="m175.8 174.8c-8.5 0-14.75 3.53-18.72 9.12-3.31 3.86-6.41 5.64-10.65 5.64-6.64 0-11.09-5.59-11.09-12.82v-3.43c0-12.6-11.33-25.97-26.17-25.97h-0.23c-14.61 0-25.3 12.37-25.3 26.03v41.64c0 13.76 10.49 26.75 25.3 26.75h0.23c12.97 0 22.96-10.6 25.39-22.97 1.39-5.66 5.67-8.65 11.07-8.65 4.36 0 7.5 2.86 10.53 6.52 4.98 5.46 11 8.45 19.1 8.45 13.7 0 25.59-11.65 25.59-25.25 0-13.1-11.02-25.06-25.05-25.06z" fill="#F6BE0B" stroke="#E5B003" stroke-miterlimit="10" stroke-width=".7"/>
  <path d="m76.97 85.12h-44.82c-13.92 0-25.15 11.86-25.15 25.3v0.53c0 13.04 10.22 24.07 23.39 24.79h46.64c13.98 0 25.39-12.21 25.39-25.37v-0.27c0-13.69-10.96-24.98-25.45-24.98z" fill="#319FE2" stroke="#318DCB" stroke-miterlimit="10" stroke-width=".7"/>
  <path d="m62.15 155.8c-3.44-2.69-4.36-5.51-4.36-8.64 0-5.92 5.1-9.87 9.69-11.37h-40.05c6.34 2.19 8.29 7.17 8.29 10.38 0 3.92-2.25 7.61-6.91 11.4-5.92 4.74-8.8 11.69-8.8 18.73 0 13.31 10.62 24.64 26.22 24.64 14.2 0 25.4-11.93 25.4-24.58 0-8.6-4.81-16.23-9.48-20.56z" fill="#E63954" stroke="#D4314E" stroke-miterlimit="10" stroke-width=".7"/>
</svg>
