<svg xmlns="http://www.w3.org/2000/svg" width="250" height="250" fill="none" viewBox="0 0 250 250">
<!-- SVG created with Arrow, by QuiverAI (https://quiver.ai) -->
  <path d="m151.2 28.27h39.17c4.25 0 6.25 3.23 6.25 6.45v24.78c0 4.31-3.45 6.18-6.5 6.18h-21.19l-13.13 9.93v-9.93h-4.6c-3.88 0-5.92-2.52-5.92-6.02v-24.94c0-3.82 2.14-6.45 5.92-6.45z" fill="url(#paint0_linear_1215_1162)" stroke="#002A52" stroke-miterlimit="10" stroke-width="3"/>
  <path d="m154.8 39.91h17.28" stroke="#004272" stroke-linecap="round" stroke-miterlimit="10" stroke-width="3"/>
  <path d="m154.8 46.42h27.08" stroke="#004272" stroke-linecap="round" stroke-miterlimit="10" stroke-width="3"/>
  <path d="m154.8 53.95h20.12" stroke="#004272" stroke-linecap="round" stroke-miterlimit="10" stroke-width="3"/>
  <path d="m190.6 42.96c8.69 0 14.77-7.57 14.77-14.84 0-8.68-6.79-14.64-14.77-14.64s-13.84 7.13-13.84 14.64c0 8.31 6.58 14.84 13.84 14.84z" fill="#F0FDFF" stroke="#002A52" stroke-miterlimit="10" stroke-width="2.5"/>
  <path d="m190.4 19.71v9.24l5.18 4.76" stroke="#002A52" stroke-linecap="round" stroke-miterlimit="10" stroke-width="3"/>
  <path d="m231.6 113.1c-0.77 0-1.1 0.05-1.81 0.22 0-10.67-7.85-18.74-17.99-18.74-7.97 0-13.07 5.19-15.97 10.52-1.52-0.78-2.53-1.17-4.53-1.17-7 0-11.09 6.17-11.44 11.17-6.63 1.55-9.92 6.96-9.92 12 0 7.4 5.94 11.85 11.62 11.85h49.86c8.41 0 12.18-7.52 12.18-12.79 0-8.01-5.92-13.06-12-13.06z" fill="url(#paint1_linear_1215_1162)" stroke="#002A52" stroke-miterlimit="10" stroke-width="2.5"/>
  <path d="m219.9 151.3h-25.83c-1.68 0-2.66-1.23-2.66-2.8v-31.09c0-1.41 0.63-2.26 2.28-2.26h17.6l9.71 9.56v24.2c0 1.36-0.59 2.39-1.1 2.39z" fill="url(#paint2_linear_1215_1162)" stroke="#002A52" stroke-miterlimit="10" stroke-width="2.5"/>
  <path d="m211.3 115.8v6.8c0 1.66 1.4 2.54 2.75 2.54h6.25" stroke="#002A52" stroke-miterlimit="10" stroke-width="2.5"/>
  <path d="m197.9 131.3h16.22" stroke="#002A52" stroke-linecap="round" stroke-miterlimit="10" stroke-width="2.5"/>
  <path d="m197.9 138.4h16.22" stroke="#002A52" stroke-linecap="round" stroke-miterlimit="10" stroke-width="2.5"/>
  <path d="m199.3 217.8c-4.03-1.95-8.82-2.95-8.82-5.67v-1.87c2.22-0.31 4.5-1.01 6.07-2.1-2.15-2.06-2.43-5.05-2.43-8.08 0-5.17-3.15-7.63-7.64-7.63-5.02 0-7.64 4.47-7.64 9.3 0 3-0.88 5.56-2.94 7.2 1.94 0.94 4 1.48 5.5 1.87 2.4 0.65 4.68 3.31 4.68 8v9.72h17.22c0-5.36-0.4-9.22-4-10.74z" fill="url(#paint3_linear_1215_1162)" stroke="#002A52" stroke-miterlimit="10" stroke-width="2.5"/>
  <path d="m176.8 214.4c-3.82-1.74-10.62-2.75-10.62-5.54v-2.28c2.72-1.9 4-5.53 4.37-8.39-0.35-0.3-0.84-0.76-0.74-1.31 0.19-1.08 1.37-4.57 0-7.5-1.91-3.38-4.19-4.5-8.39-4.5-7.37 0-9.96 5.81-9.96 10.16 0 1.24 0.25 2.04 0.15 2.55-0.1 0.56-0.83 0.86-0.83 1.53 0 1.26 1.14 4.96 5 8.86v1.9c0 3-6.73 4-10 6-4.08 2-5 5.17-5 12.59h42c0-6.91-0.6-11.93-5.98-14.07z" fill="url(#paint4_linear_1215_1162)" stroke="#002A52" stroke-miterlimit="10" stroke-width="2.5"/>
  <path d="m203.6 192.6c7.13 0 10.13-6.74 10.13-10.25 0-7.13-5.48-11-10.13-11-7.13 0-11 6-11 11.1 0 6.3 4.87 10.15 11 10.15z" fill="url(#paint5_linear_1215_1162)" stroke="#002A52" stroke-miterlimit="10" stroke-width="2.5"/>
  <path d="m199.3 180.4 2.48 1.32 2.92-1.32" stroke="#002A52" stroke-linecap="round" stroke-miterlimit="10" stroke-width="2.5"/>
  <path d="m206.3 180.4 1.54 0.75" stroke="#002A52" stroke-linecap="round" stroke-miterlimit="10" stroke-width="2.5"/>
  <path d="m138.8 126.3c-1.01 15.31-7.18 31.4-16.48 42.9l-5.2-5.4c8.4-10.15 14-23 14.8-37.5h6.88z" fill="url(#paint6_linear_1215_1162)" stroke="#002A52" stroke-miterlimit="10" stroke-width="3"/>
  <path d="m117.8 73.91-4.7 4.9c-10.7-9.2-22.9-13.8-35.5-13.8-2.9 0-3.7-2.7-3.1-5.1 0.5-2 1.6-2.5 3.4-2.4 14.3 0.7 28 6.3 39.9 16.4z" fill="#A4E894" stroke="#002A52" stroke-miterlimit="10" stroke-width="3"/>
  <path d="m138.8 120h-13.78c-1.1-13-5.7-24-8-27.9l6.7-8c8.2 10.2 14 22.9 15.08 35.9z" fill="url(#paint7_linear_1215_1162)" stroke="#002A52" stroke-miterlimit="10" stroke-width="3"/>
  <path d="m115.1 171.9 2.6 3.1c-10.9 9-22.9 14.8-35.7 15.5-2.6 0.1-4.7-1.1-4.7-3.4 0-2.1 1.1-3.1 3.1-3.4 11.4-1.1 21.4-5 30.7-13.7l4 1.9z" fill="url(#paint8_linear_1215_1162)" stroke="#002A52" stroke-miterlimit="10" stroke-width="3"/>
  <path d="m141.1 60.71-20.5 3.4 4.1 4.5-15.6 16.6-5.1-0.2-4 3.7-6.1 1.3-8.6-3.5-3.7-10.4-8.8-0.4-6 0.5-3.1 10.1-4.3 1.7-5.7 2-8.4-4.3-11.4 11 5.1 8.2-4.2 9.4-9.5 2.5c-1.2 5.4-1 10.2-0.3 15.5l10 2.3 3.8 9.1-5.4 9.3c3.7 4.7 6.3 7.4 11.6 11.4l8-5.5 7.1 4 5.5 9.6 5.3 0.4 10-0.3 3.2-8.9 9.2-3.7 10.1 4.9 9.7-11.2-5.6-9.2 3.6-9.3 9.9-3.2 0.3-14.4-9.2-2.5-4.3-10 5.6-9.4-3.8-5.7 21.2-21.1 4.1 8.6 5-16.9 1.2 0.1zm-68.2 88.7c-13.8 0-24.6-11.7-24.6-24.8s11.3-24.6 24.6-24.6c13.8 0 24.9 11.2 24.9 24.7s-11.1 24.7-24.9 24.7z" fill="url(#paint9_linear_1215_1162)" stroke="#002A52" stroke-miterlimit="10" stroke-width="3"/>
  <path d="m72.91 152.8c-16.2 0-28.9-13.7-28.9-28.2s12.7-29 28.9-29 29.2 13.9 29.2 29.1-13 28.1-29.2 28.1zm0.3-40.5c-7.8 0-11.6 7.1-11.6 12.2 0 7.1 6.1 12.6 11.6 12.6 8.5 0 12.9-7 12.9-12.4 0-7.7-6.4-12.4-12.9-12.4z" fill="url(#paint10_linear_1215_1162)"/>
  <path d="m73.11 149.4c-13.8 0-24.6-11.7-24.6-24.8s11.3-24.6 24.6-24.6c13.8 0 24.9 11.2 24.9 24.7s-11.1 24.7-24.9 24.7z" stroke="#002A52" stroke-miterlimit="10" stroke-width="3"/>
  <path d="m73.21 112.3c-7.8 0-11.6 7.1-11.6 12.2 0 7.1 6.1 12.6 11.6 12.6 8.5 0 12.9-7 12.9-12.4 0-7.7-6.4-12.4-12.9-12.4z" stroke="#002A52" stroke-miterlimit="10" stroke-width="3"/>
  <path d="m120.8 123.1h27.7v-8.1l14.4 9.9-14.1 10.2v-7.4h-25.9l-2.1-4.6z" fill="#66C692" stroke="#002A52" stroke-miterlimit="10" stroke-width="3"/>
  <path d="m110 158.4 24.1 18.5 1.5-3.7 3.1 16.9-17-3.4 3.7-3.7-17.7-20.8 2.3-3.8z" fill="url(#paint11_linear_1215_1162)" stroke="#002A52" stroke-miterlimit="10" stroke-width="3"/>
  <path d="m54.31 60.21-2.7-6.3 16.6 6.4-12.2 14.1-0.9-8.3c-23.9 7-42.4 30.2-42.4 58.7 0 25.3 15.9 50.1 41.7 60.7l1.5-10.4 12.3 13.5-17.1 6 2-6c-26.8-7.7-45.6-32.6-45.6-63.7 0-28.8 19.2-54.9 46.8-64.7z" fill="url(#paint12_linear_1215_1162)" stroke="#002A52" stroke-miterlimit="10" stroke-width="3"/>
  <path d="m73.81 199.4c-5.8 4.8-9.7 4.8-14.7 5.3v10c0 8.4 6 17.2 14.7 20.4 9.1-3.4 15-12.2 15-20.4v-10c-5.7-0.4-9.1-1.2-15-5.3z" fill="url(#paint13_linear_1215_1162)" stroke="#002A52" stroke-miterlimit="10" stroke-width="3"/>
  <path d="m73.81 201v32.6c-8.2-3-14-11.6-14-18.9v-9.2c4.9-0.5 8.6-1.1 14-4.5z" fill="url(#paint14_linear_1215_1162)"/>
  <path d="m66.61 215.7 5.1 5.5 10.2-10.5" stroke="#002A52" stroke-miterlimit="10" stroke-width="3.5"/>
  <defs>
    <linearGradient id="paint0_linear_1215_1162" x1="170.9" x2="170.9" y1="27.01" y2="76.88" gradientUnits="userSpaceOnUse">
      <stop stop-color="#66C692" offset="0"/>
      <stop stop-color="#56BFF0" offset="1"/>
    </linearGradient>
    <linearGradient id="paint1_linear_1215_1162" x1="206.8" x2="206.8" y1="93.91" y2="139.2" gradientUnits="userSpaceOnUse">
      <stop stop-color="#E8F4FC" offset="0"/>
      <stop stop-color="#66C6F1" offset="1"/>
    </linearGradient>
    <linearGradient id="paint2_linear_1215_1162" x1="206.2" x2="206.2" y1="115.2" y2="151.3" gradientUnits="userSpaceOnUse">
      <stop stop-color="#F0FDFF" offset="0"/>
      <stop stop-color="#B6DDF0" offset="1"/>
    </linearGradient>
    <linearGradient id="paint3_linear_1215_1162" x1="189.6" x2="189.6" y1="191.9" y2="228.5" gradientUnits="userSpaceOnUse">
      <stop stop-color="#F4D655" offset="0"/>
      <stop stop-color="#EA7071" offset="1"/>
    </linearGradient>
    <linearGradient id="paint4_linear_1215_1162" x1="161.8" x2="161.8" y1="184.9" y2="228.5" gradientUnits="userSpaceOnUse">
      <stop stop-color="#66D2F2" offset="0"/>
      <stop stop-color="#3376C2" offset="1"/>
    </linearGradient>
    <linearGradient id="paint5_linear_1215_1162" x1="203.2" x2="203.2" y1="170.6" y2="193.3" gradientUnits="userSpaceOnUse">
      <stop stop-color="#F4D655" offset="0"/>
      <stop stop-color="#EA7071" offset="1"/>
    </linearGradient>
    <linearGradient id="paint6_linear_1215_1162" x1="128" x2="128" y1="126.3" y2="169.2" gradientUnits="userSpaceOnUse">
      <stop stop-color="#F4D655" offset="0"/>
      <stop stop-color="#EA7071" offset="1"/>
    </linearGradient>
    <linearGradient id="paint7_linear_1215_1162" x1="127.9" x2="127.9" y1="83.11" y2="121" gradientUnits="userSpaceOnUse">
      <stop stop-color="#66C692" offset="0"/>
      <stop stop-color="#56BFF0" offset="1"/>
    </linearGradient>
    <linearGradient id="paint8_linear_1215_1162" x1="97.51" x2="97.51" y1="170" y2="190.5" gradientUnits="userSpaceOnUse">
      <stop stop-color="#F4D655" offset="0"/>
      <stop stop-color="#EA7071" offset="1"/>
    </linearGradient>
    <linearGradient id="paint9_linear_1215_1162" x1="83.16" x2="83.16" y1="57.46" y2="173.3" gradientUnits="userSpaceOnUse">
      <stop stop-color="#A4E894" offset="0"/>
      <stop stop-color="#56D0F2" offset=".5052"/>
      <stop stop-color="#3376C2" offset="1"/>
    </linearGradient>
    <linearGradient id="paint10_linear_1215_1162" x1="73.06" x2="73.06" y1="95.61" y2="152.8" gradientUnits="userSpaceOnUse">
      <stop stop-color="#3376C2" offset="0"/>
      <stop stop-color="#4BB2E5" offset="1"/>
    </linearGradient>
    <linearGradient id="paint11_linear_1215_1162" x1="124.7" x2="124.7" y1="158.4" y2="190.1" gradientUnits="userSpaceOnUse">
      <stop stop-color="#F4D655" offset="0"/>
      <stop stop-color="#EA7071" offset="1"/>
    </linearGradient>
    <linearGradient id="paint12_linear_1215_1162" x1="38.11" x2="38.11" y1="53.91" y2="195.1" gradientUnits="userSpaceOnUse">
      <stop stop-color="#66D2F2" offset="0"/>
      <stop stop-color="#3376C2" offset="1"/>
    </linearGradient>
    <linearGradient id="paint13_linear_1215_1162" x1="73.96" x2="73.96" y1="198.9" y2="235.6" gradientUnits="userSpaceOnUse">
      <stop stop-color="#66D2F2" offset="0"/>
      <stop stop-color="#3376C2" offset="1"/>
    </linearGradient>
    <linearGradient id="paint14_linear_1215_1162" x1="66.81" x2="66.81" y1="200.5" y2="233.1" gradientUnits="userSpaceOnUse">
      <stop stop-color="#B9F091" offset="0"/>
      <stop stop-color="#56BFF0" offset="1"/>
    </linearGradient>
  </defs>
</svg>
