<?xml version="1.0" encoding="UTF-8" standalone="no"?>
<svg
   width="250"
   height="250"
   viewBox="0 0 250 250"
   fill="none"
   version="1.1"
   id="svg87"
   sodipodi:docname="stuck_in_slack_with_no_way_out_you_ve_moved_to_goo_019cee44-4eea-7728-bc91-d76937031268.svg"
   inkscape:version="1.4.3 (0d15f75, 2025-12-25)"
   xmlns:inkscape="http://www.inkscape.org/namespaces/inkscape"
   xmlns:sodipodi="http://sodipodi.sourceforge.net/DTD/sodipodi-0.dtd"
   xmlns="http://www.w3.org/2000/svg"
   xmlns:svg="http://www.w3.org/2000/svg">
  <defs
     id="defs87" />
  <sodipodi:namedview
     id="namedview87"
     pagecolor="#ffffff"
     bordercolor="#000000"
     borderopacity="0.25"
     inkscape:showpageshadow="2"
     inkscape:pageopacity="0.0"
     inkscape:pagecheckerboard="0"
     inkscape:deskcolor="#d1d1d1"
     inkscape:zoom="8"
     inkscape:cx="114.0625"
     inkscape:cy="176.625"
     inkscape:window-width="2231"
     inkscape:window-height="1467"
     inkscape:window-x="4031"
     inkscape:window-y="394"
     inkscape:window-maximized="0"
     inkscape:current-layer="g1" />
  <!-- SVG created with Arrow, by QuiverAI (https://quiver.ai) -->
  <path
     d="M 108.79,66.84 C 108.79,40.42 87.69,15.56 57.82,15.56 C 29.71,15.56 6.17,37.29 6.17,67.63 C 6.17,80.97 12.01,92.74 21.31,101.08 C 29.27,108.33 32.16,114.21 31.25,128.01 L 30.89,133.82 H 108.79 V 66.84 Z"
     fill="#FEFFFE"
     stroke="#010202"
     stroke-width="1.08"
     stroke-miterlimit="10"
     id="path1" />
  <path
     d="M 184.61,64.86 H 151.89 V 55.41 H 172.57 V 44.71 H 140.76 L 130.79,33.4 H 84.99 V 32.68 H 131.13 L 141.1,43.99 H 173.29 V 54.69 H 152.61 V 64.14 H 183.9 V 134.67 C 183.9,137.06 182.22,137.98 180.62,137.98 H 80.44 C 77.92,137.98 76.91,136.16 76.91,134.67 V 118.61 L 71.46,115.29 L 65.11,103.44 V 86.17 L 55.91,89.81 V 136.17 C 55.91,148.08 65.11,158.26 76.8,158.26 H 184.61 C 196.3,158.26 203.99,147.31 203.99,136.91 V 64.86 H 184.61 Z"
     fill="#7D7DB5"
     stroke="#010202"
     stroke-width="1.08"
     stroke-miterlimit="10"
     id="path2" />
  <path
     d="M 109.8,67.75 C 108.27,62.03 111.39,57.02 108.38,47.76 C 102.13,27.92 84.16,16.19 62.83,15.56 C 53.09,15.25 41.92,16.7 32.16,23.61 C 20.88,31.21 11.97,42.94 12.32,57.36 C 12.32,58.12 12.43,58.86 13.08,59.32 C 9.43,63.51 8.88,75.89 17.67,82.41 C 18.21,82.83 18.81,83.04 18.71,83.95 C 17.61,92.73 26.06,98.29 33.31,97.88 C 37.77,97.62 41.21,95.62 44.12,93.41 C 42.63,96.98 40.26,98.97 39.41,109.16 L 45.32,108.41 C 47.49,99.21 51.78,95.11 58.75,86.62 C 67.06,87.43 72.17,85.81 76.18,82.93 C 79.98,80.19 81.71,75.98 80.47,71.81 C 88.81,73.86 94.96,72.61 99.68,66.59 C 102.91,62.49 102.71,55.91 100.49,51.15 C 99.24,48.27 97.12,46.01 95.11,44.75 C 95.21,39.19 92.21,33.83 86.06,30.14 C 82.72,28.13 78.92,27.22 75.42,27.32 C 72.96,23.63 68.43,21.05 61.28,23.78 C 60.48,24.08 59.93,24.18 59.18,23.43 C 55.13,19.74 47.22,19.99 41.72,26.71 C 41.02,27.62 40.42,28.33 38.77,28.33 C 30.71,28.23 25.21,33.89 24.11,39.45 C 23.91,40.36 23.41,40.31 22.71,40.51 C 17.76,41.97 14.41,49.23 15.21,54.09 C 15.41,55.4 15.71,56.11 16.91,56.91 C 11.91,60.6 10.21,73.18 18.71,80.91 C 19.46,81.61 20.11,81.71 20.01,82.92 C 19.21,91.11 26.71,97.93 35.07,97.63 C 39.07,97.48 42.22,95.92 45.22,93.71 C 43.72,97.28 41.92,98.74 40.62,108.78 L 45.62,108.38 C 48.08,99.08 52.88,94.17 59.23,86.13 C 66.13,87.14 71.89,86.13 76.69,82.51 C 80.49,79.63 81.74,75.95 80.64,71.49 C 88.75,73.6 95.7,71.79 99.9,65.12 C 102.36,61.23 102.91,56.12 100.65,50.96 C 103.61,53.84 111.51,74.77 109.81,77.9 C 111.61,82.66 114.81,87.82 117.27,90.8 C 118.87,94.9 113.82,94.9 109.62,95.91 C 107.72,96.36 107.32,96.67 106.82,100.09 L 105.82,112.72 C 104.92,121.11 99.81,122.72 93.91,121.71 C 87.01,120.56 82.21,119.65 77.01,117.84 C 71.11,115.78 66.01,109.26 65.11,103.44"
     fill="#D9E8F5"
     id="path3" />
  <path
     d="M 108.8,68.75 C 107.27,63.03 111.39,57.02 108.38,47.76 102.13,27.92 84.16,16.19 62.83,15.56 53.09,15.25 41.92,16.7 32.16,23.61 20.88,31.21 11.97,42.94 12.32,57.36 c 0,0.76 0.11,1.5 0.76,1.96 -3.65,4.19 -4.2,16.57 4.59,23.09 0.54,0.42 1.14,0.63 1.04,1.54 -1.1,8.78 7.35,14.34 14.6,13.93 4.46,-0.26 7.9,-2.26 10.81,-4.47 -1.49,3.57 -3.86,5.56 -4.71,15.75 l 5.91,-0.75 c 2.17,-9.2 6.46,-13.3 13.43,-21.79 8.31,0.81 13.42,-0.81 17.43,-3.69 3.8,-2.74 5.53,-6.95 4.29,-11.12 8.34,2.05 14.49,0.8 19.21,-5.22 3.23,-4.1 3.03,-10.68 0.81,-15.44 -1.25,-2.88 -3.37,-5.14 -5.38,-6.4 0.1,-5.56 -2.9,-10.92 -9.05,-14.61 -3.34,-2.01 -7.14,-2.92 -10.64,-2.82 -2.46,-3.69 -6.99,-6.27 -14.14,-3.54 -0.8,0.3 -1.35,0.4 -2.1,-0.35 -4.05,-3.69 -11.96,-3.44 -17.46,3.28 -0.7,0.91 -1.3,1.62 -2.95,1.62 -8.06,-0.1 -13.56,5.56 -14.66,11.12 -0.2,0.91 -0.7,0.86 -1.4,1.06 -4.95,1.46 -8.3,8.72 -7.5,13.58 0.2,1.31 0.5,2.02 1.7,2.82 -5,3.69 -6.7,16.27 1.8,24 0.75,0.7 1.4,0.8 1.3,2.01 -0.8,8.19 6.7,15.01 15.06,14.71 4,-0.15 7.15,-1.71 10.15,-3.92 -1.5,3.57 -3.3,5.03 -4.6,15.07 l 5,-0.4 c 2.46,-9.3 7.26,-14.21 13.61,-22.25 6.9,1.01 12.66,0 17.46,-3.62 3.8,-2.88 5.05,-6.56 3.95,-11.02 8.11,2.11 15.06,0.3 19.26,-6.37 2.46,-3.89 3.01,-9 0.75,-14.16 2.96,2.88 10.86,23.81 9.16,26.94 1.8,4.76 5,9.92 7.46,12.9 1.6,4.1 -3.45,4.1 -7.65,5.11 -1.9,0.45 -2.3,0.76 -2.8,4.18 l -1,12.63 c -0.9,8.39 -6.01,10 -11.91,8.99 -6.9,-1.15 -11.7,-2.06 -16.9,-3.87 -5.9,-2.06 -11,-8.58 -11.9,-14.4"
     stroke="#010202"
     stroke-width="1.08"
     stroke-miterlimit="10"
     id="path4"
     sodipodi:nodetypes="ccccccccccccccccccccccccccccccccccccccccccccccc" />
  <path
     d="M 90.009809,197.87627 H 47.581088 l -8.102811,-8.09892 v -80.23761"
     stroke="#a575b3"
     stroke-width="1.07956"
     stroke-miterlimit="10"
     id="path5" />
  <path
     d="m 88.763018,186.82656 h -6.57987 v -4.6759 H 52.870077 l -8.950632,-9.38125 v -63.57643"
     stroke="#54d0e1"
     stroke-width="1.08"
     stroke-miterlimit="10"
     id="path6" />
  <path
     d="M 96.92,174.63 H 60.83 C 57.03,174.63 55.33,170.69 55.33,168.83 V 158.38 L 49.08,151.12 V 103.14"
     stroke="#D54582"
     stroke-width="1.08"
     stroke-miterlimit="10"
     id="path7" />
  <path
     d="M 51.53,188.02 H 76.41"
     stroke="#7885a6"
     stroke-width="2.16"
     stroke-miterlimit="10"
     stroke-linecap="round"
     id="path8" />
  <path
     d="M 48.33,194.18 H 85.81"
     stroke="#7885A6"
     stroke-width="1.08"
     stroke-miterlimit="10"
     stroke-linecap="round"
     id="path9" />
  <path
     d="M 193.31,31.11 V 16.29"
     stroke="#010202"
     stroke-width="1.08"
     stroke-miterlimit="10"
     id="path10" />
  <path
     d="M 210.73,39.5 L 222.94,27.22"
     stroke="#010202"
     stroke-width="1.08"
     stroke-miterlimit="10"
     id="path11" />
  <path
     d="M 217.68,55.41 H 232.91"
     stroke="#010202"
     stroke-width="1.08"
     stroke-miterlimit="10"
     id="path12" />
  <path
     d="M 211.18,71.9 L 222.35,83.16"
     stroke="#010202"
     stroke-width="1.08"
     stroke-miterlimit="10"
     id="path13" />
  <path
     d="M 183.15,76.04 L 166.08,84.02"
     stroke="#010202"
     stroke-width="1.08"
     stroke-miterlimit="10"
     id="path14" />
  <path
     d="M 166.98,27.07 L 176.44,38.03"
     stroke="#010202"
     stroke-width="1.08"
     stroke-miterlimit="10"
     id="path15" />
  <path
     d="M 193.31,16.94 C 197.49,16.94 198.95,13.86 198.95,12.01 C 198.95,8.32 196.45,6.16 193.6,6.16 C 189.95,6.16 188.05,8.83 188.05,11.81 C 188.05,14.79 190.35,16.94 193.31,16.94 Z"
     fill="#E8483F"
     stroke="#010202"
     stroke-width="1.08"
     stroke-miterlimit="10"
     id="path16" />
  <path
     d="M 226.01,28.63 C 230.19,28.63 231.65,25.55 231.65,23.7 C 231.65,20.01 229.15,17.85 226.3,17.85 C 222.65,17.85 220.75,20.52 220.75,23.5 C 220.75,26.48 223.05,28.63 226.01,28.63 Z"
     fill="#4878C0"
     stroke="#010202"
     stroke-width="1.08"
     stroke-miterlimit="10"
     id="path17" />
  <path
     d="M 238.71,61.23 C 242.89,61.23 244.35,58.15 244.35,56.3 C 244.35,52.61 241.85,50.45 239,50.45 C 235.35,50.45 233.45,53.12 233.45,56.1 C 233.45,59.08 235.75,61.23 238.71,61.23 Z"
     fill="#F4B434"
     stroke="#010202"
     stroke-width="1.08"
     stroke-miterlimit="10"
     id="path18" />
  <path
     d="M 226.01,92.21 C 230.19,92.21 231.65,89.13 231.65,87.28 C 231.65,83.59 229.15,81.43 226.3,81.43 C 222.65,81.43 220.75,84.1 220.75,87.08 C 220.75,90.06 223.05,92.21 226.01,92.21 Z"
     fill="#2DA958"
     stroke="#010202"
     stroke-width="1.08"
     stroke-miterlimit="10"
     id="path19" />
  <path
     d="M 162.63,28.63 C 166.81,28.63 168.27,25.55 168.27,23.7 C 168.27,20.01 165.77,17.85 162.92,17.85 C 159.27,17.85 157.37,20.52 157.37,23.5 C 157.37,26.48 159.67,28.63 162.63,28.63 Z"
     fill="#4878C0"
     stroke="#010202"
     stroke-width="1.08"
     stroke-miterlimit="10"
     id="path20" />
  <path
     d="M 162.63,92.61 C 166.81,92.61 168.27,89.53 168.27,87.68 C 168.27,83.99 165.77,81.83 162.92,81.83 C 159.27,81.83 157.37,84.5 157.37,87.48 C 157.37,90.46 159.67,92.61 162.63,92.61 Z"
     fill="#2DA958"
     stroke="#010202"
     stroke-width="1.08"
     stroke-miterlimit="10"
     id="path21" />
  <path
     d="M 150.32,61.23 C 154.5,61.23 155.96,58.15 155.96,56.3 C 155.96,52.61 153.46,50.45 150.61,50.45 C 146.96,50.45 145.06,53.12 145.06,56.1 C 145.06,59.08 147.36,61.23 150.32,61.23 Z"
     fill="#E8483F"
     stroke="#010202"
     stroke-width="1.08"
     stroke-miterlimit="10"
     id="path22" />
  <path
     d="M 130.79,36.72 C 133.89,36.72 134.94,34.31 134.94,32.91 C 134.94,30.29 133.14,28.78 131.14,28.78 C 128.64,28.78 127.34,30.69 127.34,32.76 C 127.34,34.82 128.89,36.72 130.79,36.72 Z"
     fill="#4878C0"
     stroke="#010202"
     stroke-width="1.08"
     stroke-miterlimit="10"
     id="path23" />
  <path
     d="M 107.35,16.14 C 108.93,16.14 109.51,14.91 109.51,14.16 C 109.51,12.66 108.49,11.81 107.42,11.81 C 106.04,11.81 105.31,12.89 105.31,14.06 C 105.31,15.23 106.21,16.14 107.35,16.14 Z"
     fill="#FEFFFE"
     stroke="#010202"
     stroke-width="1.08"
     stroke-miterlimit="10"
     id="path24" />
  <path
     d="M 107.35,20.75 C 108.93,20.75 109.51,19.52 109.51,18.77 C 109.51,17.27 108.49,16.42 107.42,16.42 C 106.04,16.42 105.31,17.5 105.31,18.67 C 105.31,19.84 106.21,20.75 107.35,20.75 Z"
     fill="#FEFFFE"
     stroke="#010202"
     stroke-width="1.08"
     stroke-miterlimit="10"
     id="path25" />
  <path
     d="M 107.35,25.66 C 108.93,25.66 109.51,24.43 109.51,23.68 C 109.51,22.18 108.49,21.33 107.42,21.33 C 106.04,21.33 105.31,22.41 105.31,23.58 C 105.31,24.75 106.21,25.66 107.35,25.66 Z"
     fill="#FEFFFE"
     stroke="#010202"
     stroke-width="1.08"
     stroke-miterlimit="10"
     id="path26" />
  <path
     d="M 112.66,13.51 H 130.84"
     stroke="#7885A6"
     stroke-width="2.16"
     stroke-miterlimit="10"
     stroke-linecap="round"
     id="path27" />
  <path
     d="M 112.66,18.27 H 130.84"
     stroke="#7885A6"
     stroke-width="2.16"
     stroke-miterlimit="10"
     stroke-linecap="round"
     id="path28" />
  <path
     d="M 112.66,23.63 H 130.84"
     stroke="#7885A6"
     stroke-width="2.16"
     stroke-miterlimit="10"
     stroke-linecap="round"
     id="path29" />
  <path
     d="M 193.31,140.08 C 193.31,147.14 187.11,150.52 183.86,150.52 H 76.06 C 69.81,150.52 65.36,145.61 65.36,138.94 V 109.1"
     stroke="#54D0E1"
     stroke-width="2.16"
     stroke-miterlimit="10"
     stroke-linecap="round"
     id="path30" />
  <path
     d="M 193.31,88.99 V 129.12"
     stroke="#54D0E1"
     stroke-width="2.16"
     stroke-miterlimit="10"
     stroke-linecap="round"
     id="path31" />
  <path
     d="M 173.29,52.62 H 125.79 L 124.89,49.64 H 90.01"
     stroke="#E8483F"
     stroke-width="1.08"
     stroke-miterlimit="10"
     id="path32" />
  <path
     d="m 172.57,66.13 h -32.43 l -8.95,7.58 h -3.15 l -7.91,-4.15 V 62.03 L 95.65,61.78"
     stroke="#2da958"
     stroke-width="1.08"
     stroke-miterlimit="10"
     id="path33"
     sodipodi:nodetypes="ccccccc" />
  <path
     d="M 193.71,79.72 C 206.78,79.72 217.38,68.36 217.38,55.41 C 217.38,42.46 206.38,31.11 193.71,31.11 C 180.24,31.11 170.03,42.11 170.03,55.41 C 170.03,68.71 180.24,79.72 193.71,79.72 Z"
     fill="#FEFFFE"
     stroke="#010202"
     stroke-width="1.08"
     stroke-miterlimit="10"
     id="path34" />
  <path
     d="M 193.71,39.13 C 199.21,39.13 202.91,41.91 204.61,44.21 L 199.91,48.83 C 198.41,46.87 196.11,45.46 193.11,45.46 C 187.11,45.46 183.11,50.82 183.11,55.34 C 183.11,56.86 182.61,54.13 178.01,50.04 C 179.91,43.72 185.91,39.13 193.71,39.13 Z"
     fill="#E8483F"
     id="path35" />
  <path
     d="M 183.06685,55.432546 178.34293,49.64 c -0.64418,1.859336 -0.96626,3.83786 -0.96626,5.875978 0,3.790185 1.07362,7.282398 2.95245,10.274022 l 5.79755,-6.328893 C 184.67728,57.899742 183.71103,56.1 183.06685,55.432546 Z"
     fill="#f4b434"
     id="path36"
     style="stroke-width:1.13121" />
  <path
     d="M 180.51,65.23 C 183.61,69.63 188.61,72.05 193.71,72.05 C 203.41,72.05 209.71,64.01 209.71,55.11 C 209.71,53.8 209.61,52.94 209.41,51.93 H 193.71 V 58.71 H 202.91 C 202.31,61.79 199.31,65.88 193.71,65.88 C 189.91,65.88 186.56,63.67 184.71,60.43 L 180.51,65.23 Z"
     fill="#2DA958"
     id="path37" />
  <path
     d="M 193.31,91.41 C 195.69,91.41 196.52,89.52 196.52,88.39 C 196.52,86.08 194.91,84.74 193.25,84.74 C 191.11,84.74 189.94,86.43 189.94,88.23 C 189.94,89.89 191.28,91.41 193.31,91.41 Z"
     fill="#FEFFFE"
     id="path38" />
  <path
     d="M 193.31,115.02 C 195.69,115.02 196.52,113.13 196.52,112 C 196.52,109.69 194.91,108.35 193.25,108.35 C 191.11,108.35 189.94,110.04 189.94,111.84 C 189.94,113.5 191.28,115.02 193.31,115.02 Z"
     fill="#FEFFFE"
     id="path39" />
  <path
     d="M 193.31,132.75 C 195.69,132.75 196.52,130.86 196.52,129.73 C 196.52,127.42 194.91,126.08 193.25,126.08 C 191.11,126.08 189.94,127.77 189.94,129.57 C 189.94,131.23 191.28,132.75 193.31,132.75 Z"
     fill="#FEFFFE"
     id="path40" />
  <path
     d="M 178.08,151.42 C 180.46,151.42 181.29,149.53 181.29,148.4 C 181.29,146.09 179.68,144.75 178.02,144.75 C 175.88,144.75 174.71,146.44 174.71,148.24 C 174.71,149.9 176.05,151.42 178.08,151.42 Z"
     fill="#54D0E1"
     id="path41" />
  <path
     d="M 65.76,133.31 C 68.14,133.31 68.97,131.42 68.97,130.29 C 68.97,127.98 67.36,126.64 65.7,126.64 C 63.56,126.64 62.39,128.33 62.39,130.13 C 62.39,131.79 63.73,133.31 65.76,133.31 Z"
     fill="#54D0E1"
     id="path42" />
  <path
     d="M 85.14,150.92 C 87.52,150.92 88.35,149.03 88.35,147.9 C 88.35,145.59 86.74,144.25 85.08,144.25 C 82.94,144.25 81.77,145.94 81.77,147.74 C 81.77,149.4 83.11,150.92 85.14,150.92 Z"
     fill="#54D0E1"
     id="path43" />
  <path
     d="M 141.5,151.42 C 143.88,151.42 144.71,149.53 144.71,148.4 C 144.71,146.09 143.1,144.75 141.44,144.75 C 139.3,144.75 138.13,146.44 138.13,148.24 C 138.13,149.9 139.47,151.42 141.5,151.42 Z"
     fill="#54D0E1"
     id="path44" />
  <path
     d="M 124.28,153.73 C 129.51,153.73 131.46,149.61 131.46,147.12 C 131.46,142.21 128.11,139.33 124.41,139.33 C 119.61,139.33 117.06,143.17 117.06,147.27 C 117.06,151.06 120.06,153.73 124.28,153.73 Z"
     fill="#7D7DB5"
     stroke="#010202"
     stroke-width="1.08"
     stroke-miterlimit="10"
     id="path45"
     style="stroke:#020101;stroke-opacity:1" />
  <path
     d="M 132.09,123.32 C 117.21,123.32 107.11,135.9 107.11,148.43 V 158.26 H 114.61 V 148.43 C 114.61,138.98 122.52,132.77 130.72,132.77 C 140.72,132.77 148.63,141.36 148.63,149.9 V 158.26 H 157.13 V 147.22 C 157.13,134.44 146.22,123.32 132.09,123.32 Z"
     fill="#B8B8D1"
     stroke="#010202"
     stroke-width="1.08"
     stroke-miterlimit="10"
     id="path46" />
  <path
     d="M 166.92,170.81 V 197.91 C 166.92,214.12 153.31,231.65 131.49,231.65 C 110.11,231.65 97.55,215.63 97.55,197.91 V 171.21 C 97.55,167.78 99.7,166.02 103.15,166.02 H 160.82 C 164.72,166.02 166.92,168.38 166.92,170.81 Z"
     fill="#571651"
     stroke="#010202"
     stroke-width="1.08"
     stroke-miterlimit="10"
     id="path47" />
  <path
     d="M 128.09,175.28 H 125.94 C 123.19,175.28 121.29,177.34 121.29,179.71 V 183.7 H 131.49 V 178.95 C 131.49,176.99 129.99,175.28 128.09,175.28 Z"
     fill="#54D0E1"
     id="path48" />
  <path
     d="M 126.24,186.22 H 115.23 C 112.48,186.22 110.58,187.98 110.58,190.35 C 110.58,192.97 112.78,194.63 114.88,194.63 H 125.44 C 128.49,194.63 130.39,192.11 130.39,189.9 V 186.22 H 126.24 Z"
     fill="#54D0E1"
     id="path49" />
  <path
     d="M 148.72,186.22 H 147.72 V 186.32 C 145.07,186.72 143.92,188.93 143.92,190.65 V 194.64 H 148.92 C 151.22,194.64 153.12,192.58 153.12,190.32 C 153.12,187.93 151.22,186.22 148.72,186.22 Z"
     fill="#2DA958"
     id="path50" />
  <path
     d="M 138.01,174.83 C 135.11,174.83 133.61,177.19 133.61,179.31 V 190.01 C 133.61,192.79 135.81,194.65 137.91,194.65 H 140.11 V 194.55 C 142.41,194.15 143.61,191.99 143.61,190.13 V 179.06 C 143.61,176.44 141.51,174.83 138.01,174.83 Z"
     fill="#2DA958"
     id="path51" />
  <path
     d="M 148.47,197.41 H 137.21 C 134.71,197.41 133.01,199.47 133.01,201.63 C 133.01,204.41 135.21,205.82 137.21,205.82 H 148.72 C 151.22,205.82 153.12,203.61 153.12,201.4 C 153.12,198.82 150.92,197.41 148.47,197.41 Z"
     fill="#F4B434"
     id="path52" />
  <path
     d="M 126.59,197.01 C 123.64,197.01 121.84,199.42 121.84,201.63 V 211.63 C 121.84,214.41 123.89,216.07 125.99,216.07 H 126.59 C 129.44,216.07 130.99,213.65 130.99,211.39 V 201.3 C 130.99,198.82 129.09,197.01 126.59,197.01 Z"
     fill="#E62E62"
     id="path53" />
  <path
     d="M 138.11,207.53 H 133.61 V 212.29 C 133.61,214.65 135.66,216.06 137.81,216.06 H 138.11 C 140.91,216.06 142.61,213.7 142.61,211.54 V 207.55 H 138.11 V 207.53 Z"
     fill="#F4B434"
     id="path54" />
  <path
     d="M 117.78,197.41 H 115.58 C 112.73,197.41 111.18,199.47 111.18,201.63 V 204.25 H 117.08 C 119.08,204.25 120.58,202.34 120.58,200.28 V 197.4 H 117.78 V 197.41 Z"
     fill="#E62E62"
     id="path55" />
  <path
     d="M 108.17,221.73 L 117.12,210.42 C 119.22,207.64 117.02,203.24 113.92,203.24 C 112.32,203.24 111.12,203.94 110.22,205.25 L 101.72,216.2 C 99.77,218.87 100.07,223.38 104.27,224.94 C 106.02,225.59 107.22,222.88 108.17,221.73 Z"
     fill="#3F3A51"
     stroke="#010202"
     stroke-width="1.08"
     stroke-miterlimit="10"
     id="path56" />
  <path
     d="M 97.21,240.01 L 102.26,233.69 C 104.11,231.17 103.21,227.03 100.61,225.92 L 99.31,225.32 L 98.11,222.44 C 95.11,220.98 92.41,222.14 90.61,224.51 L 85.81,230.52 C 83.11,234.05 83.91,240.01 89.41,242.33 C 92.91,243.69 95.71,241.73 97.21,240.01 Z"
     fill="#848393"
     stroke="#010202"
     stroke-width="1.08"
     stroke-miterlimit="10"
     id="path57" />
  <path
     d="m 111.31,210.41 c -6.2,8 -15.4,19.81 -15.4,19.81"
     stroke="#010202"
     stroke-width="1.08"
     stroke-miterlimit="10"
     id="path58"
     sodipodi:nodetypes="cc" />
  <path
     d="M 155.62,221.73 L 147.12,211.28 C 145.02,208.81 145.62,205.23 148.72,204.12 C 150.72,203.37 152.62,204.52 153.82,206.13 L 161.32,215.68 C 163.52,218.46 162.47,222.81 158.82,224.42 C 157.42,225.09 156.52,222.88 155.62,221.73 Z"
     fill="#3F3A51"
     stroke="#010202"
     stroke-width="1.08"
     stroke-miterlimit="10"
     id="path59" />
  <path
     d="M 167.83,240.01 L 161.48,232.43 C 159.03,229.4 160.08,225.72 162.88,224.11 L 164.18,222.05 C 167.38,220.79 169.48,222.25 171.28,224.51 L 177.48,232.13 C 179.88,235.21 178.68,241.53 173.18,242.94 C 170.93,243.54 168.93,242.03 167.83,240.01 Z"
     fill="#848393"
     stroke="#010202"
     stroke-width="1.08"
     stroke-miterlimit="10"
     id="path60" />
  <path
     d="M 166.08,229.56 L 153.12,212.84"
     stroke="#010202"
     stroke-width="1.08"
     stroke-miterlimit="10"
     id="path61" />
  <path
     d="M 165.73,141.91 C 162.78,141.91 160.88,143.82 159.53,146.08 L 151.17,159.33 L 142.22,168.28 C 139.72,171.06 140.82,175.97 145.42,176.72 C 147.77,177.12 149.72,175.41 150.92,173.7 L 159.63,161.06 L 168.88,151.62 C 171.73,148.69 170.83,142.92 165.73,141.91 Z"
     fill="#848393"
     stroke="#010202"
     stroke-width="1.08"
     stroke-miterlimit="10"
     id="path64" />
  <path
     d="M 159.73,152.69 L 150.77,166.19"
     stroke="#010202"
     stroke-width="1.08"
     stroke-miterlimit="10"
     id="path65" />
  <g
     id="g1">
    <g
       id="g2"
       transform="matrix(-0.99988885,-0.00432954,9.7072308e-4,0.98261972,130.16326,-59.998356)">
      <path
         d="m 32.10657,206.54 c -2.95,0 -4.85,1.91 -6.2,4.17 l -8.36,13.25 -8.95,8.95 c -2.5,2.78 -1.4,7.69 3.2,8.44 2.35,0.4 4.3,-1.31 5.5,-3.02 l 8.71,-12.64 9.25,-9.44 c 2.85,-2.93 1.95,-8.7 -3.15,-9.71 z"
         fill="#848393"
         stroke="#010202"
         stroke-width="1.08"
         stroke-miterlimit="10"
         id="path64-7" />
      <path
         d="m 26.10657,217.32 -8.96,13.5"
         stroke="#010202"
         stroke-width="1.08"
         stroke-miterlimit="10"
         id="path65-1" />
    </g>
  </g>
  <path
     d="M 179.74,166.93 V 173.1 H 183.39 V 166.93 H 186.24 V 179.96 H 183.39 V 175.31 H 179.74 V 179.96 H 176.89 V 166.93 H 179.74 Z"
     fill="black"
     id="path66" />
  <g
     id="g87">
    <path
       d="m 189.815,166.805 v 13.03 h -2.25 v -13.03 z"
       fill="#000000"
       id="path67" />
  </g>
  <path
     d="M 191.39,177.4 C 192.04,177.75 193.04,178 193.94,178 C 195.39,178 196.09,177.2 196.09,176.1 C 196.09,174.95 195.34,174.35 194.19,173.55 C 192.44,172.45 191.39,170.99 191.39,169.64 C 191.39,167.53 192.89,166.23 195.49,166.23 C 196.54,166.23 197.44,166.53 197.89,166.78 L 197.39,168.89 C 196.94,168.59 196.29,168.34 195.39,168.34 C 194.09,168.34 193.49,169.14 193.49,169.94 C 193.49,170.89 194.04,171.39 195.64,172.39 C 197.54,173.59 198.29,174.95 198.29,176.25 C 198.29,178.66 196.34,179.97 193.84,179.97 C 192.59,179.97 191.44,179.62 190.94,179.32 L 191.39,177.4 Z"
     fill="black"
     id="path68" />
  <path
     d="M 202.25,168.79 H 199.35 V 166.68 H 207.6 V 168.79 H 204.7 V 179.86 H 202.25 V 168.79 Z"
     fill="black"
     id="path69" />
  <path
     d="M 218.52,173.15 C 218.52,178.16 216.47,180.02 213.72,180.02 C 210.52,180.02 209.07,177.05 209.07,173.36 C 209.07,169.73 210.72,166.75 213.92,166.75 C 217.32,166.75 218.52,170 218.52,173.15 Z M 211.62,173.35 C 211.62,176.23 212.37,178.03 213.82,178.03 C 215.37,178.03 215.97,175.82 215.97,173.25 C 215.97,170.94 215.42,168.63 213.82,168.63 C 212.37,168.63 211.62,170.64 211.62,173.35 Z"
     fill="black"
     id="path70" />
  <path
     d="M 221.02,167.33 C 221.87,167.18 222.92,167.08 223.87,167.08 C 225.42,167.08 226.72,167.33 227.62,168.08 C 228.47,168.83 228.77,169.74 228.77,170.84 C 228.77,172.35 227.92,173.6 226.37,174.26 V 174.31 C 227.42,174.66 227.97,175.61 228.27,177.12 C 228.57,178.63 228.97,179.88 229.22,180.33 H 226.67 C 226.47,179.93 226.12,178.72 225.87,177.27 C 225.57,175.66 224.97,175.06 223.77,175.06 H 223.12 V 180.33 H 220.97 V 167.33 H 221.02 Z M 223.27,173.2 H 223.97 C 225.42,173.2 226.37,172.15 226.37,170.79 C 226.37,169.43 225.67,168.58 224.12,168.58 C 223.77,168.58 223.47,168.58 223.27,168.68 V 173.2 Z"
     fill="black"
     id="path71" />
  <path
     d="M 233.31,179.96 V 174.7 L 229.71,166.92 H 232.51 L 233.76,170.35 C 234.11,171.35 234.51,172.51 234.81,173.61 H 234.86 C 235.11,172.51 235.46,171.4 235.86,170.25 L 237.01,166.92 H 239.76 L 236.01,174.6 V 179.86 H 233.31 V 179.96 Z"
     fill="black"
     id="path72" />
  <path
     d="M 176.31,183.91 H 178.71 V 195.03 H 183.06 V 197.04 H 176.31 V 183.91 Z"
     fill="black"
     id="path73" />
  <path
     d="M 193.03,190.28 C 193.03,195.34 190.93,197.25 188.23,197.25 C 185.08,197.25 183.58,194.22 183.58,190.48 C 183.58,186.79 185.28,183.76 188.43,183.76 C 191.83,183.71 193.03,187.04 193.03,190.28 Z M 186.28,190.48 C 186.28,193.41 187.03,195.27 188.48,195.27 C 189.98,195.27 190.58,193.01 190.58,190.33 C 190.58,188.02 190.03,185.66 188.43,185.66 C 186.98,185.66 186.28,187.72 186.28,190.48 Z"
     fill="black"
     id="path74" />
  <path
     d="M 202.49,196.79 C 201.99,197 201.09,197.15 200.04,197.15 C 196.64,197.15 194.84,194.63 194.84,190.74 C 194.84,185.93 197.79,184.02 200.39,184.02 C 201.44,184.02 202.19,184.22 202.54,184.42 L 202.04,186.38 C 201.64,186.18 201.19,186.03 200.39,186.03 C 198.69,186.03 197.09,187.49 197.09,190.72 C 197.09,193.95 198.54,195.26 200.39,195.26 C 200.99,195.26 201.64,195.11 202.04,194.96 L 202.49,196.79 Z"
     fill="black"
     id="path75" />
  <path
     d="M 204.39,183.91 H 206.74 V 189.93 H 206.79 C 207.09,189.32 207.34,188.67 207.64,188.07 L 209.99,183.93 H 212.69 L 209.24,189.39 L 212.79,197.02 H 210.09 L 207.54,190.9 L 206.74,192.21 V 197.07 H 204.39 V 183.91 Z"
     fill="black"
     id="path76" />
  <path
     d="M 220.86,191.1 H 217.31 V 195.09 H 221.36 V 197.05 H 215.46 V 183.91 H 221.11 V 185.87 H 217.31 V 189.25 H 220.86 V 191.1 Z"
     fill="black"
     id="path77" />
  <path
     d="M 222.81,184.11 C 223.56,183.91 224.56,183.81 225.66,183.81 C 227.51,183.81 228.76,184.21 229.71,185.01 C 230.91,186.07 231.61,187.88 231.61,190.35 C 231.61,193.02 230.71,194.78 229.56,195.84 C 228.51,196.79 227.01,197.24 225.01,197.24 C 224.06,197.24 223.26,197.14 222.76,197.04 V 184.11 H 222.81 Z M 225.06,195.28 C 225.31,195.33 225.56,195.33 225.76,195.33 C 227.71,195.33 229.21,193.82 229.21,190.19 C 229.21,187.21 227.96,185.65 225.91,185.65 C 225.56,185.65 225.26,185.7 225.06,185.75 V 195.28 Z"
     fill="black"
     id="path78" />
  <path
     d="M 88.76,200.38 C 91.14,200.38 91.97,198.49 91.97,197.36 C 91.97,195.05 90.36,193.71 88.7,193.71 C 86.56,193.71 85.39,195.4 85.39,197.2 C 85.39,198.86 86.73,200.38 88.76,200.38 Z"
     fill="#A575B3"
     stroke="#010202"
     stroke-width="0.5"
     stroke-miterlimit="10"
     id="path79" />
  <path
     d="M 88.76,189.23 C 90.61,189.23 91.32,187.69 91.32,186.74 C 91.32,184.83 89.98,183.71 88.61,183.71 C 86.81,183.71 85.81,185.12 85.81,186.63 C 85.81,188.03 87.01,189.23 88.76,189.23 Z"
     fill="#54D0E1"
     stroke="#010202"
     stroke-width="0.5"
     stroke-miterlimit="10"
     id="path80" />
  <path
     d="M 130.39,77.14 C 132.77,77.14 133.6,75.25 133.6,74.12 C 133.6,71.81 131.99,70.47 130.33,70.47 C 128.19,70.47 127.02,72.16 127.02,73.96 C 127.02,75.62 128.36,77.14 130.39,77.14 Z"
     fill="#2DA958"
     stroke="#010202"
     stroke-width="0.5"
     stroke-miterlimit="10"
     id="path81" />
  <path
     d="m 87.41,52.99 c 2.38,0 3.21,-1.89 3.21,-3.02 0,-2.31 -1.61,-3.65 -3.27,-3.65 -2.14,0 -3.31,1.71 -3.31,3.52 0,1.66 1.34,3.15 3.37,3.15 z"
     fill="#e8483f"
     stroke="#010202"
     stroke-width="0.5"
     stroke-miterlimit="10"
     id="path84" />
  <path
     d="M 92.11,65.12 C 94.49,65.12 95.32,63.23 95.32,62.1 C 95.32,59.79 93.71,58.45 92.05,58.45 C 89.91,58.45 88.74,60.16 88.74,61.97 C 88.74,63.63 90.08,65.12 92.11,65.12 Z"
     fill="#2DA958"
     stroke="#010202"
     stroke-width="0.5"
     stroke-miterlimit="10"
     id="path85" />
  <path
     d="M 68.11,65.12 L 70.81,65.12 L 71.36,64.22 L 71.36,63.01 L 70.31,62.11 L 68.11,62.11 L 66.21,59.03 L 66.21,59.03 C 65.21,56.62 67.41,55.21 68.61,54.71 H 70.81 L 79.31,64.22 H 82.11 L 84.61,61.34 H 86.51,61.34"
     stroke="#54D0E1"
     stroke-width="1.08"
     stroke-miterlimit="10"
     stroke-linecap="round"
     id="path86" />
  <path
     d="M 53.33,31.01 C 55.71,31.01 56.54,29.12 56.54,27.99 C 56."
     id="path87" />
</svg>
